<?xml version="1.0" encoding="UTF-8" standalone="no"?>
<svg
   width="512"
   height="512"
   viewBox="0 0 135.46666 135.46667"
   version="1.1"
   id="svg8"
   inkscape:version="1.3 (0e150ed6c4, 2023-07-21)"
   sodipodi:docname="dragnmelting.svg"
   xml:space="preserve"
   inkscape:export-filename="dragnmeltingweak.png"
   inkscape:export-xdpi="192"
   inkscape:export-ydpi="192"
   xmlns:inkscape="http://www.inkscape.org/namespaces/inkscape"
   xmlns:sodipodi="http://sodipodi.sourceforge.net/DTD/sodipodi-0.dtd"
   xmlns:xlink="http://www.w3.org/1999/xlink"
   xmlns="http://www.w3.org/2000/svg"
   xmlns:svg="http://www.w3.org/2000/svg"
   xmlns:rdf="http://www.w3.org/1999/02/22-rdf-syntax-ns#"
   xmlns:cc="http://creativecommons.org/ns#"
   xmlns:dc="http://purl.org/dc/elements/1.1/"><defs
     id="defs2"><radialGradient
   id="_Radial1"
   cx="0"
   cy="0"
   r="1"
   gradientUnits="userSpaceOnUse"
   gradientTransform="matrix(0,1,1,0,-9.27473e-6,9.27473e-6)"><stop
     offset="0"
     style="stop-color:rgb(247,135,37);stop-opacity:1"
     id="stop5" /><stop
     offset="1"
     style="stop-color:rgb(255,186,0);stop-opacity:1"
     id="stop6" /></radialGradient><clipPath
   clipPathUnits="userSpaceOnUse"
   id="clipPath35"><path
     id="path36"
     style="fill:#ffba00;fill-opacity:1;stroke:none;stroke-width:0.283194px;stroke-linecap:butt;stroke-linejoin:miter;stroke-opacity:1"
     d="m 22.717721,3.5279986 c -2.821763,0.8935413 -4.370422,2.3488956 -6.567952,3.7185155 -2.854402,1.7790194 -3.55657,3.2896499 -5.133919,6.2041019 -1.007538,1.861618 -2.1028446,4.163352 -1.8691217,6.314791 -0.00958,0.68456 0.1830559,0.81649 0.7045208,1.116618 0.2750199,0.158288 0.7147909,0.383404 1.3617349,0.435152 -0.41642,-0.235618 -0.649318,-0.284788 -0.745427,-0.602568 -0.103064,-0.340779 0.134099,-0.567969 0.782823,-0.641243 2.105571,-0.237837 4.181225,-1.253789 7.489637,1.721718 1.070799,0.963051 1.979194,1.657373 2.781489,2.165571 0.259339,0.164282 1.220554,2.038766 1.206079,3.850027 -0.01841,2.297266 -2.054943,6.694773 -2.046115,7.770196 0.01626,1.964026 2.918579,4.22167 4.437998,4.205115 2.103389,-0.02291 4.144761,-1.689915 3.909755,-4.03634 -0.08132,-0.811869 -2.398628,-5.096986 -2.203929,-6.994271 0.149241,-1.454356 0.502886,-2.610206 0.777021,-2.566685 2.371516,0.376485 2.214448,-0.843671 6.706589,2.914644 1.214414,1.016032 0.891932,2.132004 3.936606,2.514081 0.08135,0.01029 1.993976,1.998467 3.040131,5.451192 0.339204,1.119508 1.343557,-0.576715 2.751352,-0.02056 2.840667,1.122241 7.153267,0.506976 9.069427,0.936866 4.597799,1.031517 9.155462,5.551365 9.155462,5.551365 5.322432,0.667028 5.226457,-1.832197 9.632812,-1.3257 2.61107,2.685124 -3.671091,7.479745 -6.566239,8.889064 -3.934378,1.915199 -5.093269,2.460106 -10.118381,1.458941 -1.493239,-0.297503 -6.817738,1.290722 -8.09898,0.712907 -1.78857,-0.806612 -3.590838,-4.173331 -7.588816,-4.559102 -1.575147,-0.151987 -2.260624,0.172093 -3.570565,-0.263025 -1.185167,-0.393668 -2.137741,-1.069408 -3.679608,-1.39732 -2.555608,-0.543499 -3.541882,2.535761 -4.273061,2.50367 0,0 -1.360612,-0.302564 -3.191919,-0.767154 -2.982014,-0.756523 -7.212771,-1.942298 -8.852433,-2.94862 -0.235632,-0.14461 -0.405718,-0.491908 -0.188501,-0.715647 0.421591,-0.434253 1.617678,-0.784236 1.826379,-0.952371 -0.696585,0.01127 -2.271398,0.445604 -2.68395,0.510159 -0.277418,0.04342 -0.859588,0.673116 -0.952918,1.161693 -0.125868,0.658905 -0.307654,0.952085 -0.373715,1.568836 -0.133504,1.246452 -0.108828,2.78869 0.407689,4.120724 0.455159,1.173766 1.635509,1.89865 2.359553,2.956838 1.0575,1.545532 1.73813,2.792931 4.564031,3.338775 9.590142,1.852408 24.846358,4.094778 32.988265,10.149474 2.605608,1.93765 4.360944,8.538718 -1.174512,9.360048 -6.432103,0.95437 -7.316486,-1.337411 -22.785171,-0.137457 -9.441612,0.732417 -17.270175,11.308141 -19.179191,17.434375 -2.4853105,0.500539 -5.3453078,2.151983 -7.3627586,3.305212 -1.8011546,1.029597 -3.2264652,2.730895 -3.29550601,4.123495 -0.13443029,2.71158 2.37088741,4.75717 12.88655161,6.07819 0.578817,0.0727 -4.2372956,2.27954 -7.1582191,5.05292 -1.3975286,1.32693 -0.8017222,2.39168 -1.2386842,3.55431 2.4122673,3.06019 11.0337753,3.52028 19.3119993,3.47833 7.247881,-0.0367 13.519514,-2.77057 21.759911,-2.43292 5.399254,0.22122 0.56211,1.56895 -0.04909,6.2146 -0.403654,3.0681 6.410685,5.15708 15.966466,5.49579 12.310245,0.43638 18.504805,-7.70865 29.60801,-7.88169 3.537924,-0.0551 9.565799,0.5996 10.458799,2.13578 1.35863,2.33713 12.12766,3.20304 17.21858,1.93684 5.29736,-1.31754 0.29537,-11.10244 0.67955,-12.72946 0.3951,-1.67321 4.44786,-2.13027 6.77995,-2.32802 3.39752,-0.28811 7.11072,-0.42561 8.24755,-2.35283 -0.0983,-1.41245 -0.63766,-1.67201 -1.26245,-2.27737 -2.12168,-2.05566 -13.33077,-4.81568 -13.16664,-5.14388 0.0822,-0.1643 -0.70318,0.18739 1.69499,-0.944129 -0.51643,-3.385436 -7.37591,-6.370645 -9.77098,-6.738037 -1.51908,-2.314538 -2.00165,-4.486858 -1.82935,-9.070817 0.32369,-8.611922 -4.90638,-32.002422 -7.69255,-40.06348 2.30183,-0.159483 5.06471,-0.118195 6.89002,-0.337447 0.74249,-0.08919 2.75405,0.475128 2.9869,3.98322 0.2288,3.447143 -1.95083,9.280668 -1.97146,10.853084 -0.0983,7.494852 2.61606,10.083625 4.58732,10.031944 4.21294,-0.110453 5.56257,-3.458535 5.56813,-7.42125 0.002,-1.759871 -1.12122,-9.93249 -1.18649,-13.143902 -0.0803,-3.951973 2.8244,-7.631607 3.30316,-7.812958 3.66484,-1.388176 3.74023,-2.147382 7.89667,-4.954738 1.99092,-1.344708 3.91937,-4.719521 4.94285,-5.026565 v -5.29e-4 c -0.28531,-1.30702 -1.21354,-0.741661 -3.69951,-0.754475 -3.83796,-0.01977 -11.15539,0.671854 -20.21427,-1.694987 C 96.725532,23.869733 99.741685,23.0491 88.950696,17.769705 77.945897,12.385703 65.710908,9.9041348 62.652584,10.07732 c -2.784528,0.157683 -7.930388,0.530738 -11.61365,2.426406 -2.132629,0.307354 -2.898069,0.439768 -4.865412,0.461938 -2.819392,0.03177 -5.500079,-1.062491 -8.709414,-2.566686 C 36.052392,9.7373164 35.541794,7.3089425 34.657961,5.886456 33.532521,4.0751238 24.778271,3.9486956 22.717721,3.5279986 Z"
     sodipodi:nodetypes="csscscscssccssssscsssccsssssscsssccsssssssscsssscsssccsssscccccscsscscscsccsssscsssc" /></clipPath><clipPath
   clipPathUnits="userSpaceOnUse"
   id="clipPath37"><path
     id="path38"
     style="fill:#ffba00;fill-opacity:1;stroke:none;stroke-width:0.283194px;stroke-linecap:butt;stroke-linejoin:miter;stroke-opacity:1"
     d="m 22.717721,3.5279986 c -2.821763,0.8935413 -4.370422,2.3488956 -6.567952,3.7185155 -2.854402,1.7790194 -3.55657,3.2896499 -5.133919,6.2041019 -1.007538,1.861618 -2.1028446,4.163352 -1.8691217,6.314791 -0.00958,0.68456 0.1830559,0.81649 0.7045208,1.116618 0.2750199,0.158288 0.7147909,0.383404 1.3617349,0.435152 -0.41642,-0.235618 -0.649318,-0.284788 -0.745427,-0.602568 -0.103064,-0.340779 0.134099,-0.567969 0.782823,-0.641243 2.105571,-0.237837 4.181225,-1.253789 7.489637,1.721718 1.070799,0.963051 1.979194,1.657373 2.781489,2.165571 0.259339,0.164282 1.220554,2.038766 1.206079,3.850027 -0.01841,2.297266 -2.054943,6.694773 -2.046115,7.770196 0.01626,1.964026 2.918579,4.22167 4.437998,4.205115 2.103389,-0.02291 4.144761,-1.689915 3.909755,-4.03634 -0.08132,-0.811869 -2.398628,-5.096986 -2.203929,-6.994271 0.149241,-1.454356 0.502886,-2.610206 0.777021,-2.566685 2.371516,0.376485 2.214448,-0.843671 6.706589,2.914644 1.214414,1.016032 0.891932,2.132004 3.936606,2.514081 0.08135,0.01029 1.993976,1.998467 3.040131,5.451192 0.339204,1.119508 1.343557,-0.576715 2.751352,-0.02056 2.840667,1.122241 7.153267,0.506976 9.069427,0.936866 4.597799,1.031517 9.155462,5.551365 9.155462,5.551365 5.322432,0.667028 5.226457,-1.832197 9.632812,-1.3257 2.61107,2.685124 -3.671091,7.479745 -6.566239,8.889064 -3.934378,1.915199 -5.093269,2.460106 -10.118381,1.458941 -1.493239,-0.297503 -6.817738,1.290722 -8.09898,0.712907 -1.78857,-0.806612 -3.590838,-4.173331 -7.588816,-4.559102 -1.575147,-0.151987 -2.260624,0.172093 -3.570565,-0.263025 -1.185167,-0.393668 -2.137741,-1.069408 -3.679608,-1.39732 -2.555608,-0.543499 -3.541882,2.535761 -4.273061,2.50367 0,0 -1.360612,-0.302564 -3.191919,-0.767154 -2.982014,-0.756523 -7.212771,-1.942298 -8.852433,-2.94862 -0.235632,-0.14461 -0.405718,-0.491908 -0.188501,-0.715647 0.421591,-0.434253 1.617678,-0.784236 1.826379,-0.952371 -0.696585,0.01127 -2.271398,0.445604 -2.68395,0.510159 -0.277418,0.04342 -0.859588,0.673116 -0.952918,1.161693 -0.125868,0.658905 -0.307654,0.952085 -0.373715,1.568836 -0.133504,1.246452 -0.108828,2.78869 0.407689,4.120724 0.455159,1.173766 1.635509,1.89865 2.359553,2.956838 1.0575,1.545532 1.73813,2.792931 4.564031,3.338775 9.590142,1.852408 24.846358,4.094778 32.988265,10.149474 2.605608,1.93765 4.360944,8.538718 -1.174512,9.360048 -6.432103,0.95437 -7.316486,-1.337411 -22.785171,-0.137457 -9.441612,0.732417 -17.270175,11.308141 -19.179191,17.434375 -2.4853105,0.500539 -5.3453078,2.151983 -7.3627586,3.305212 -1.8011546,1.029597 -3.2264652,2.730895 -3.29550601,4.123495 -0.13443029,2.71158 2.37088741,4.75717 12.88655161,6.07819 0.578817,0.0727 -4.2372956,2.27954 -7.1582191,5.05292 -1.3975286,1.32693 -0.8017222,2.39168 -1.2386842,3.55431 2.4122673,3.06019 11.0337753,3.52028 19.3119993,3.47833 7.247881,-0.0367 13.519514,-2.77057 21.759911,-2.43292 5.399254,0.22122 0.56211,1.56895 -0.04909,6.2146 -0.403654,3.0681 6.410685,5.15708 15.966466,5.49579 12.310245,0.43638 18.504805,-7.70865 29.60801,-7.88169 3.537924,-0.0551 9.565799,0.5996 10.458799,2.13578 1.35863,2.33713 12.12766,3.20304 17.21858,1.93684 5.29736,-1.31754 0.29537,-11.10244 0.67955,-12.72946 0.3951,-1.67321 4.44786,-2.13027 6.77995,-2.32802 3.39752,-0.28811 7.11072,-0.42561 8.24755,-2.35283 -0.0983,-1.41245 -0.63766,-1.67201 -1.26245,-2.27737 -2.12168,-2.05566 -13.33077,-4.81568 -13.16664,-5.14388 0.0822,-0.1643 -0.70318,0.18739 1.69499,-0.944129 -0.51643,-3.385436 -7.37591,-6.370645 -9.77098,-6.738037 -1.51908,-2.314538 -2.00165,-4.486858 -1.82935,-9.070817 0.32369,-8.611922 -4.90638,-32.002422 -7.69255,-40.06348 2.30183,-0.159483 5.06471,-0.118195 6.89002,-0.337447 0.74249,-0.08919 2.75405,0.475128 2.9869,3.98322 0.2288,3.447143 -1.95083,9.280668 -1.97146,10.853084 -0.0983,7.494852 2.61606,10.083625 4.58732,10.031944 4.21294,-0.110453 5.56257,-3.458535 5.56813,-7.42125 0.002,-1.759871 -1.12122,-9.93249 -1.18649,-13.143902 -0.0803,-3.951973 2.8244,-7.631607 3.30316,-7.812958 3.66484,-1.388176 3.74023,-2.147382 7.89667,-4.954738 1.99092,-1.344708 3.91937,-4.719521 4.94285,-5.026565 v -5.29e-4 c -0.28531,-1.30702 -1.21354,-0.741661 -3.69951,-0.754475 -3.83796,-0.01977 -11.15539,0.671854 -20.21427,-1.694987 C 96.725532,23.869733 99.741685,23.0491 88.950696,17.769705 77.945897,12.385703 65.710908,9.9041348 62.652584,10.07732 c -2.784528,0.157683 -7.930388,0.530738 -11.61365,2.426406 -2.132629,0.307354 -2.898069,0.439768 -4.865412,0.461938 -2.819392,0.03177 -5.500079,-1.062491 -8.709414,-2.566686 C 36.052392,9.7373164 35.541794,7.3089425 34.657961,5.886456 33.532521,4.0751238 24.778271,3.9486956 22.717721,3.5279986 Z"
     sodipodi:nodetypes="csscscscssccssssscsssccsssssscsssccsssssssscsssscsssccsssscccccscsscscscsccsssscsssc" /></clipPath><radialGradient
   id="_Radial1-9"
   cx="0"
   cy="0"
   r="1"
   gradientUnits="userSpaceOnUse"
   gradientTransform="matrix(0,22.776439,23.557163,0,65.867618,83.220755)"><stop
     offset="0"
     style="stop-color:#f78725;stop-opacity:0.56236327;"
     id="stop5-8" /><stop
     offset="1"
     style="stop-color:#f78725;stop-opacity:0;"
     id="stop6-7" /></radialGradient>&#10;        &#10;    <radialGradient
   id="_Radial1-4"
   cx="0"
   cy="0"
   r="1"
   gradientUnits="userSpaceOnUse"
   gradientTransform="matrix(0,20.590921,21.296729,0,104.60846,164.41486)"><stop
     offset="0"
     style="stop-color:rgb(247,135,37);stop-opacity:1"
     id="stop5-9" /><stop
     offset="1"
     style="stop-color:#f78725;stop-opacity:0;"
     id="stop6-8" /></radialGradient>&#10;        &#10;    <clipPath
   clipPathUnits="userSpaceOnUse"
   id="clipPath2"><path
     style="fill:#ffba00;fill-opacity:1;stroke:none;stroke-width:0.373965px;stroke-linecap:butt;stroke-linejoin:miter;stroke-opacity:1"
     d="m 85.928017,11.632961 c 26.013993,8.453336 33.281963,2.311154 39.184983,0.45186 5.42985,-1.710258 7.07366,-2.9014597 7.65245,-2.1049581 0.57875,0.7965051 -7.24049,14.0177611 -14.6668,16.8004501 -6.84285,2.564054 -18.606466,10.591804 -26.070306,8.99764 -7.46379,-1.59416 -9.299467,-22.92684 -9.299467,-22.92684 z"
     id="path3"
     sodipodi:nodetypes="csssscc" /></clipPath></defs><sodipodi:namedview
     id="base"
     pagecolor="#ffffff"
     bordercolor="#666666"
     borderopacity="1.0"
     inkscape:pageopacity="0.0"
     inkscape:pageshadow="2"
     inkscape:zoom="2"
     inkscape:cx="43"
     inkscape:cy="199.25"
     inkscape:document-units="px"
     inkscape:current-layer="layer2"
     inkscape:document-rotation="0"
     showgrid="true"
     units="px"
     inkscape:pagecheckerboard="true"
     borderlayer="false"
     inkscape:showpageshadow="0"
     inkscape:deskcolor="#d1d1d1"
     inkscape:window-width="2560"
     inkscape:window-height="1494"
     inkscape:window-x="-11"
     inkscape:window-y="-11"
     inkscape:window-maximized="1"><inkscape:grid
       type="xygrid"
       id="grid2405"
       originx="0"
       originy="0"
       spacingy="1"
       spacingx="1"
       units="px"
       visible="true" /></sodipodi:namedview><metadata
     id="metadata5"><rdf:RDF><cc:Work
         rdf:about=""><dc:format>image/svg+xml</dc:format><dc:type
           rdf:resource="http://purl.org/dc/dcmitype/StillImage" /></cc:Work></rdf:RDF></metadata><g
     inkscape:label="Layer 1"
     inkscape:groupmode="layer"
     id="layer1"
     style="display:none"
     sodipodi:insensitive="true"><image
       width="135.46666"
       height="135.46666"
       preserveAspectRatio="none"
       style="image-rendering:optimizeSpeed"
       xlink:href="dragnmeltingref.png"
       id="image1"
       x="0"
       y="2.7755576e-17" /></g><g
     inkscape:groupmode="layer"
     id="layer2"
     inkscape:label="Layer 2"><path
       style="fill:#ffba00;fill-opacity:1;stroke:none;stroke-width:0.373964px;stroke-linecap:butt;stroke-linejoin:miter;stroke-opacity:1"
       d="m 85.947068,14.795954 c 25.429052,10.077204 33.069942,4.40564 39.078472,2.92235 5.52691,-1.364393 7.24257,-2.449549 7.76997,-1.618129 0.52737,0.831422 -8.11017,13.533198 -15.6972,15.841969 -6.99094,2.127372 -19.237442,9.397213 -26.585879,7.335479 -7.348387,-2.061725 -7.83496,-23.467711 -7.83496,-23.467711 z"
       id="path10"
       sodipodi:nodetypes="csssscc" /><path
       style="fill:#ea6a2e;fill-opacity:1;stroke:none;stroke-width:0.283193px;stroke-linecap:butt;stroke-linejoin:miter;stroke-opacity:1"
       d="m 67.574602,34.06434 c -0.457007,1.144895 -1.872292,-0.627446 -4.48692,-0.689822 -4.127085,-0.09846 -8.343029,6.519307 -14.331064,7.277775 -4.248708,0.538158 -5.688269,5.709486 -9.018139,5.754613 -1.480314,0.102159 -5.211728,-4.4767 -8.084772,-4.443137 -2.560708,0.02991 -6.365393,0.0247 -8.278735,1.621631 -5.183132,4.325981 -6.857022,0.553228 -11.543167,1.878788 -4.6644288,10.950189 62.349361,22.455991 62.349361,22.455991 l 3.357556,-34.759655"
       id="path6"
       sodipodi:nodetypes="csssssccc" /><path
       style="fill:#d46426;fill-opacity:1;stroke:none;stroke-width:0.264583px;stroke-linecap:butt;stroke-linejoin:miter;stroke-opacity:1"
       d="m 99.592846,20.50384 c 2.651484,-1.010145 6.830684,0.04276 10.823024,0.519652 7.17545,0.85712 10.73814,1.34368 19.79854,0.973866 14.1015,-0.575572 -2.0998,7.139826 -2.0998,7.139826 l -35.767324,-0.47435 z"
       id="path32"
       clip-path="url(#clipPath2)"
       sodipodi:nodetypes="cssccc"
       transform="rotate(3.6160339,35.836789,13.516235)" /><path
       id="path5"
       style="fill:#ffba00;fill-opacity:1;stroke:none;stroke-width:0.283193px;stroke-linecap:butt;stroke-linejoin:miter;stroke-opacity:1"
       d="M 23.653254,0.98435686 C 20.75957,1.900673 19.171438,3.3931217 16.917897,4.7976508 13.990741,6.6220141 12.900225,7.2285029 11.38932,10.272545 c -0.948765,1.91149 -0.944819,2.703233 -0.43354,3.508133 1.733817,1.309838 1.580361,4.371905 4.973098,7.423252 1.098092,0.987598 4.214216,1.077488 7.380897,6.081773 4.843211,7.653695 6.418079,-2.23001 8.155367,-1.188467 6.095778,3.654555 2.813641,12.061989 12.248588,7.942706 3.465333,-1.512959 2.125434,3.754616 7.899587,7.444594 5.622521,2.727732 10.509712,-7.203435 15.706861,-6.64169 3.079669,2.978019 -6.383991,17.796035 -13.550025,19.30721 -5.035981,1.061989 -3.177622,-4.013843 -8.638017,-4.054231 -3.468074,-0.02565 -3.249441,3.431526 -7.912816,4.952875 -7.726332,2.520588 -6.493448,-5.322622 -9.870862,-6.331572 -2.541818,-0.759328 -5.8953,1.817771 -8.843655,1.173916 -1.942085,-0.424108 -3.625917,-1.926204 -4.593869,-3.114363 -0.746139,-0.915884 -2.572036,-0.08009 -2.079129,-1.312493 -0.831805,0.840577 -1.37481,1.394726 -1.328549,2.520814 0.06067,1.476976 -1.0825597,2.114585 -0.238766,4.145459 0.46676,1.203684 4.394849,6.304074 5.137348,7.389233 1.084453,1.584925 2.962314,2.312366 5.837912,2.977388 l 24.991123,5.779546 c 8.50064,1.965892 12.045412,12.562575 3.689813,11.826232 -8.783465,-0.774049 -14.846806,-0.82292 -23.860932,1.593111 -9.147117,2.451677 -13.388085,10.232381 -15.297101,16.358615 -2.4853104,0.500538 -5.3453078,2.151984 -7.3627587,3.305214 -1.8011545,1.0296 -3.2264651,2.7309 -3.29550591,4.1235 -0.13443029,2.71158 2.37088741,4.75717 12.88655161,6.07819 0.578817,0.0727 -4.2372956,2.27954 -7.1582192,5.05292 -1.3975286,1.32693 -0.8017221,2.39168 -1.2386841,3.55431 2.4122673,3.06019 11.0337753,3.52028 19.3119993,3.47833 7.24788,-0.0367 10.245462,-1.22709 18.48586,-0.88944 5.399254,0.22122 0.56211,1.56895 -0.04909,6.2146 -0.403652,3.0681 6.410685,5.15708 15.966467,5.49579 12.310246,0.43638 21.778858,-9.25213 32.882063,-9.42517 3.537922,-0.0551 11.368924,0.11133 13.567644,1.60661 3.80494,2.58762 14.29036,4.20935 19.2079,3.07405 5.17047,-1.1937 5.27739,-2.89665 4.75415,-5.0206 -0.77887,-3.16163 -9.40285,-7.34251 -9.17277,-8.3169 0.39509,-1.67321 4.44786,-2.13027 6.77995,-2.32802 3.39752,-0.28811 7.11072,-0.42561 8.24755,-2.35283 -0.0983,-1.41245 -0.63766,-1.67201 -1.26245,-2.27737 -2.12168,-2.05566 -13.33077,-4.81568 -13.16664,-5.14388 0.0822,-0.1643 -0.70318,0.18739 1.69499,-0.94414 -0.51643,-3.385431 -7.37591,-6.37064 -9.77098,-6.738033 -1.46976,-2.239397 -1.96922,-4.345657 -1.84405,-8.631896 0.004,-0.143824 0.0173,-0.290018 0.0147,-0.438921 C 110,73.419182 104.63503,55.238009 101.77785,46.97149 c 2.3605,-0.163547 7.70734,-0.914957 9.57917,-1.139798 0.76141,-0.09146 2.82425,0.487238 3.06303,4.084744 0.23463,3.535005 -2.00055,9.517217 -2.02171,11.129709 -0.1008,7.685885 2.68274,10.340639 4.70424,10.287642 4.32032,-0.113269 5.70435,-3.546688 5.71006,-7.610406 0.002,-1.804727 -1.1498,-10.185649 -1.21674,-13.478915 -0.0823,-4.052703 2.89639,-7.826123 3.38736,-8.012097 2.56556,-1.891278 3.7074,-2.975233 5.5844,-4.287274 2.01931,-1.411515 4.91834,-4.395509 4.90468,-6.169199 -0.006,-0.736031 -0.96078,-0.06938 -3.62965,0.240279 -4.10114,0.475834 -11.43972,0.68898 -20.7295,-1.738189 C 95.806175,26.278675 99.483472,19.689794 87.833172,15.684987 L 64.605984,7.700609 C 61.901251,6.7708532 56.948287,7.2545965 53.171147,9.1985826 50.984161,9.5137705 50.199211,9.6495595 48.181723,9.6722946 45.290471,9.7048744 42.541457,8.5827226 39.250321,7.0401877 37.802624,6.3616615 36.804189,4.8616703 35.897828,3.402927 34.743705,1.5454273 25.766324,1.4157767 23.653254,0.98435686 Z"
       sodipodi:nodetypes="csscssssscsssssscssssssscsssscsssccssssscccccsscsscscscsssssscsssc" /><ellipse
       cx="104.60866"
       cy="164.41466"
       style="clip-rule:evenodd;fill:url(#_Radial1-4);fill-rule:evenodd;stroke-width:20.9408;stroke-miterlimit:10"
       id="ellipse2"
       transform="matrix(0,1,1,0,0,0)"
       rx="21.29673"
       ry="20.590921" /><path
       id="path7"
       style="fill:#2e2e2e;stroke-width:0.283179"
       d="m 80.675784,52.653291 c -0.410861,-0.339059 -0.810268,-0.726684 -1.195163,-1.15159 -0.521143,-0.57535 -1.015584,-1.219156 -1.475603,-1.903551 -0.944261,-1.404841 -1.743382,-2.980811 -2.330266,-4.487247 -1.937081,-4.972175 -0.909923,-9.311086 3.275836,-11.652934 4.185754,-2.34184 7.927928,0.329396 10.644194,4.922511 2.311654,3.908929 0.462574,12.116978 -1.615206,15.091936 -2.202423,3.153422 -5.607353,0.580867 -7.303792,-0.819125 z"
       sodipodi:nodetypes="ssssssss" /><path
       id="path13"
       style="fill:#ffba00;fill-opacity:1;stroke-width:0.261005"
       d="m 127.56964,154.94761 c 0.3068,1.21827 1.42248,2.51196 5.0899,2.49904 3.66744,-0.0129 6.19649,-1.14665 6.16981,-2.40264 -0.0266,-1.25601 -2.56941,-3.99553 -6.9378,-4.08389 -3.75175,-0.0759 -5.06279,1.04543 -4.32191,3.98749 z"
       sodipodi:nodetypes="sssss" /><path
       id="path14"
       style="fill:#ffba00;fill-opacity:1;stroke-width:0.517017"
       d="m 5.8967068,146.34477 c -1.419826,2.07243 0.0042,5.52776 12.1161602,5.43585 9.048952,-0.0686 11.070088,-2.56548 11.018038,-5.09097 -0.05201,-2.52549 -5.070125,-6.20744 -9.201293,-6.24959 -4.579587,-0.0466 -12.4519782,3.74308 -13.9329052,5.90471 z"
       sodipodi:nodetypes="sssss" /><path
       id="path12-8"
       style="display:inline;fill:#292f33;fill-opacity:1;stroke:none;stroke-width:0.590907px;stroke-linecap:butt;stroke-linejoin:miter;stroke-opacity:1"
       d="m 29.424582,13.043939 c -0.598009,0.171539 -1.703509,0.67639 -2.426059,1.72731 -0.871574,1.267673 0.555049,2.590305 1.538244,2.738767 0.962817,0.145375 1.052331,-0.281976 1.908401,-0.03415 1.098863,0.318116 1.99947,0.657974 2.712863,1.600049 0.503718,0.656533 1.001768,1.028323 1.612173,0.387029 0.576423,-0.60557 0.591318,-2.001543 0.517138,-2.613142 -0.05258,-0.433521 -0.09672,-1.540143 -0.355219,-1.750211 -1.630599,-1.325099 -2.462081,-2.514042 -5.507541,-2.055652 z"
       sodipodi:nodetypes="cscsscssc" /><path
       style="fill:#d46426;fill-opacity:1;stroke:none;stroke-width:0.283193px;stroke-linecap:butt;stroke-linejoin:miter;stroke-opacity:1"
       d="m 10.762651,94.635401 c -0.219665,3.314499 1.68336,7.701499 -0.255488,7.814179 -2.2031906,0.12805 -3.9671297,-4.653446 -4.2895319,-6.646137 -0.2028072,-1.2535 2.21998,-0.742654 3.3111884,-1.094119 0.3921745,-0.126314 1.2338315,-0.07392 1.2338315,-0.07392 z"
       id="path15"
       sodipodi:nodetypes="cssscc"
       clip-path="url(#clipPath37)"
       transform="translate(0,3.4191852)" /><path
       style="fill:#d46426;fill-opacity:1;stroke:none;stroke-width:0.312521px;stroke-linecap:butt;stroke-linejoin:miter;stroke-opacity:1"
       d="m 15.429998,106.12328 c 0,0.86741 2.389743,5.91227 6.503012,6.88468 2.446824,0.57845 6.713138,0.26884 8.494098,0.19524 4.774874,-0.1973 9.668132,3.19642 15.666321,2.99911 5.998188,-0.19732 12.706685,-1.46011 12.825072,-2.52557 0.118386,-1.06545 -6.194341,-1.49925 -11.325526,-1.61359 -7.083286,-0.15786 -6.8234,-3.34635 -13.255668,-3.3858 -2.950883,-0.0181 -6.515615,0.62349 -10.626168,0.0739 -4.849532,-0.64835 -8.281141,-3.50604 -8.281141,-2.62801 z"
       id="path16"
       sodipodi:nodetypes="ssssssssss" /><path
       style="fill:#d46426;fill-opacity:1;stroke:none;stroke-width:0.303343px;stroke-linecap:butt;stroke-linejoin:miter;stroke-opacity:1"
       d="m 105.51669,111.44428 c -1.7515,0.01 -1.89745,0.37396 -3.77497,0.95275 -1.71028,0.52723 -0.0503,5.10615 -6.140149,5.19871 -1.670547,0.0254 -3.807528,-1.61402 -6.111371,-1.56243 -8.0969,0.18132 -9.325077,3.76705 -15.188385,3.82534 -5.443931,0.0541 -14.772437,-1.57649 -14.725787,-3.35094 0.04677,-1.77906 10.254605,-0.57607 15.861038,-1.38859 3.116634,-0.45171 6.291209,-4.29857 13.722009,-3.6327 2.10589,0.18871 5.935687,0.43694 6.797889,-0.67244 0.998142,-1.28427 -0.851839,-3.99341 0.124684,-4.27276 2.366072,-0.67688 4.447882,-1.12367 5.992602,-1.17121 7.0419,-0.21667 8.45214,-3.10366 9.34593,-4.78067 0.87597,-1.643549 1.27947,-4.643767 1.15072,-6.085931 -0.0268,-0.300909 -0.17515,-0.660508 -0.50022,-1.320877 -0.33568,-0.681932 3.84315,-1.192062 4.39862,-0.419027 0.84433,1.175043 1.2108,4.339623 0.74611,7.508035 -0.49162,3.35207 -4.19075,11.11857 -11.69866,11.17274 z"
       id="path17"
       sodipodi:nodetypes="cssssssssssssssscc"
       clip-path="url(#clipPath35)"
       transform="translate(0,3.4191852)" /><path
       style="fill:#d46426;fill-opacity:1;stroke:none;stroke-width:0.348491px;stroke-linecap:butt;stroke-linejoin:miter;stroke-opacity:1"
       d="m 65.909166,86.6226 c -0.995114,-0.295591 -1.937195,10.807062 4.858353,11.80481 2.90711,0.426833 8.076924,-0.914762 10.085117,-0.995274 5.384096,-0.215868 10.958476,7.123804 17.732886,6.907954 6.774398,-0.21589 11.274868,-7.716691 8.295728,-12.485229 -2.28547,-3.658151 -2.86611,-1.07433 -2.84492,1.028271 0.0361,3.578947 -4.124928,5.705737 -7.439319,5.606229 -5.752169,-0.172693 -9.295172,-7.80595 -16.614024,-7.849114 -3.357608,-0.01976 -3.52617,3.747555 -8.316496,3.146304 -5.651514,-0.709353 -3.613474,-6.527136 -5.757325,-7.163951 z"
       id="path18"
       sodipodi:nodetypes="ssssssssss" /><path
       style="fill:#d46426;fill-opacity:1;stroke:none;stroke-width:0.283193px;stroke-linecap:butt;stroke-linejoin:miter;stroke-opacity:1"
       d="m 36.283274,94.431754 c -0.512144,-0.156622 -3.651662,4.937356 -1.827704,7.352616 1.027077,1.36004 4.475038,3.05613 5.865007,3.10712 5.515542,0.20234 8.653249,-3.29526 8.531928,-5.77576 -0.241217,-4.931893 -0.668641,-6.960617 -1.260234,-7.046105 -0.606204,-0.08759 -0.801185,0.796033 -1.168917,1.997038 -0.724851,2.367348 -2.191958,7.172617 -6.025832,6.674617 -4.52311,-0.5875 -2.389593,-5.782098 -4.114248,-6.309526 z"
       id="path19"
       sodipodi:nodetypes="ssssssss" /></g></svg>
